<svg id="Layer_1" data-name="Layer 1" xmlns="http://www.w3.org/2000/svg" viewBox="0 0 425.95 192.47"><defs><style>.cls-1{fill:#231f20;}</style></defs><title>MOJA_logo final</title><polygon class="cls-1" points="144.17 15.9 142.98 12.38 157.42 7.48 158.61 11 153.41 12.76 158.88 28.88 154.9 30.23 149.43 14.12 144.17 15.9"/><path class="cls-1" d="M395.4,207.2a4.12,4.12,0,0,0,1.67,2.49l.58.49a8.19,8.19,0,0,0,1.57-1.82,2.9,2.9,0,0,0,.31-1.77c-.15-1.26-.92-1.82-2.3-1.65a1.81,1.81,0,0,0-1.83,2.26m2.72,12.61a8.11,8.11,0,0,0,2.32-.61,3.21,3.21,0,0,0,1.5-1.06l-5.86-4.6a3.62,3.62,0,0,0-1.83,3.7q.35,3,3.87,2.57m-5.65-16.56a7.79,7.79,0,0,1,4.45-1.76,7.18,7.18,0,0,1,4.64.72,4.14,4.14,0,0,1,2,3.24,5.75,5.75,0,0,1-.5,3.51,14,14,0,0,1-2.91,3.24l3.32,2.61a8.47,8.47,0,0,0,.16-1.79c0-.88,0-1.59,0-2.14l3.95-.37a24.38,24.38,0,0,1-.82,6.31l3.74,2.55-2,2.9L405,220a8.24,8.24,0,0,1-2.49,2.2,8.52,8.52,0,0,1-3.41,1.15c-2.95.35-5.11.06-6.47-.85a5.84,5.84,0,0,1-2.42-4.47,6.46,6.46,0,0,1,.57-4,7.19,7.19,0,0,1,3-2.66,10.39,10.39,0,0,1-1.91-2.25,6.67,6.67,0,0,1-.67-2.4,3.93,3.93,0,0,1,1.3-3.53" transform="translate(-207.97 -201.41)"/><path class="cls-1" d="M439.16,205.17c-2.2-.2-3.37.42-3.51,1.88a1.64,1.64,0,0,0,.68,1.56,21.18,21.18,0,0,0,3.7,1.85,10.74,10.74,0,0,1,4,2.6,5.22,5.22,0,0,1,.86,3.89,6.14,6.14,0,0,1-2.44,4.74,7.8,7.8,0,0,1-5.32,1.18,28.93,28.93,0,0,1-5.73-1.27l-1.07-.32.73-3.21a49.85,49.85,0,0,0,6.17,1.13c2.15.21,3.3-.58,3.47-2.36a1.79,1.79,0,0,0-.6-1.59,10.68,10.68,0,0,0-2.85-1.47,12.12,12.12,0,0,1-4.74-2.84,5.14,5.14,0,0,1-1.08-4,5.62,5.62,0,0,1,2.32-4.44,8,8,0,0,1,5.3-1,34.44,34.44,0,0,1,5.65,1.14l1.07.32-.64,3.28a60,60,0,0,0-6-1.06" transform="translate(-207.97 -201.41)"/><path class="cls-1" d="M459.29,216.14l3.3.76c2.05.46,3.36-.57,3.93-3.11a4,4,0,0,0-.12-2.86,3.1,3.1,0,0,0-2.14-1.35l-3.3-.75Zm2.53,4.27-3.32-.76-1.35,5.89-4.1-.94,4.61-20.21,7.43,1.69q7.2,1.65,5.6,8.66a7.67,7.67,0,0,1-3.07,5,7.32,7.32,0,0,1-5.8.66" transform="translate(-207.97 -201.41)"/><path class="cls-1" d="M487,216.27l-5.41,8.49,5.31,2,1.47-10Zm-13.46,13.39,11.62-17.79,7.49,2.79-2.88,21.06-3.95-1.47.54-3.8-6.8-2.54-2.08,3.22Z" transform="translate(-207.97 -201.41)"/><path class="cls-1" d="M320,377.14V298l9.81-12.8a.68.68,0,0,0-.54-1.08H285.28a.69.69,0,0,0-.61.38.66.66,0,0,0,.07.7l9.75,12.92L270.71,336l-36.35-57.66a.68.68,0,0,0-.92-.22l-22.91,13.67a.68.68,0,0,0-.13,1.06l7.4,7.4v76.9l-9.69,12.8a.67.67,0,0,0,.54,1.08h29.94a.67.67,0,0,0,.6-.37.66.66,0,0,0-.07-.71l-9.8-12.8v-61.4l32.39,50.78a.69.69,0,0,0,.57.31h0a.68.68,0,0,0,.57-.31l31.59-50.13v60.75l-9.7,12.8a.7.7,0,0,0-.06.71.68.68,0,0,0,.6.37h43.94a.68.68,0,0,0,.54-1.08Z" transform="translate(-207.97 -201.41)"/><path class="cls-1" d="M402.78,346a42.32,42.32,0,0,1-2.87,15.27A30.93,30.93,0,0,1,386.06,358a33.72,33.72,0,0,1-10.74-8.6,38.76,38.76,0,0,1-6.72-12.22,43.93,43.93,0,0,1-2.32-14.08A40.21,40.21,0,0,1,369.14,308,31.2,31.2,0,0,1,383,311.28a34,34,0,0,1,10.78,8.56A38.31,38.31,0,0,1,400.46,332a43.48,43.48,0,0,1,2.32,14m8.1-39.75a36,36,0,0,0-26.26-11.15,34.45,34.45,0,0,0-14.6,3.15,37.28,37.28,0,0,0-11.76,8.57,40.94,40.94,0,0,0-7.89,12.78,43,43,0,0,0-2.89,15.81,40.39,40.39,0,0,0,2.9,15.49,37.38,37.38,0,0,0,7.9,12.09,35.63,35.63,0,0,0,11.83,7.87,37.92,37.92,0,0,0,14.51,2.81,35.58,35.58,0,0,0,14.5-3,36.59,36.59,0,0,0,11.77-8.3,39.51,39.51,0,0,0,7.89-12.45,43.57,43.57,0,0,0,0-31.26,38.84,38.84,0,0,0-7.9-12.41" transform="translate(-207.97 -201.41)"/><path class="cls-1" d="M508.11,284.11H464.17a.68.68,0,0,0-.6.37.67.67,0,0,0,.06.71l9.7,12.8v84.13l-21.1-15.23a.67.67,0,0,0-.74,0l-21.95,13.31a.69.69,0,0,0-.32.55.68.68,0,0,0,.28.58c2.63,1.84,5.18,3.49,7.58,4.88a67.57,67.57,0,0,0,8.85,4.36,44.51,44.51,0,0,0,8.92,2.53,58.06,58.06,0,0,0,9.83.8,38.16,38.16,0,0,0,13.68-2.38,33.91,33.91,0,0,0,10.79-6.55,30.33,30.33,0,0,0,7.13-9.77,28.74,28.74,0,0,0,2.56-12.06V298l9.81-12.8a.66.66,0,0,0,.06-.7.66.66,0,0,0-.6-.38" transform="translate(-207.97 -201.41)"/><path class="cls-1" d="M570.23,320.54,584.29,350H556.17Zm63.55,69.4L624,377l-46.11-96.83a.7.7,0,0,0-1.22,0l-46.16,97.07-9.7,12.68a.66.66,0,0,0-.06.7.66.66,0,0,0,.6.38h31.19a.65.65,0,0,0,.6-.37.68.68,0,0,0-.06-.71l-9.73-13,7.41-15.54h38.9l7.42,15.54-10,13a.66.66,0,0,0-.06.7.66.66,0,0,0,.6.38h45.57a.68.68,0,0,0,.6-.37.7.7,0,0,0-.07-.71" transform="translate(-207.97 -201.41)"/><path class="cls-1" d="M312.64,238l3.81,9.32,4.69-3.2-7.29-7Zm3.18,18.72L308,237l6.6-4.51L330.12,247l-3.47,2.37-2.8-2.63-6,4.09,1.44,3.56Z" transform="translate(-207.97 -201.41)"/><path class="cls-1" d="M341.42,228.08a3.77,3.77,0,0,0-.41-2.48,3.49,3.49,0,0,0-1.76-1.79,2.83,2.83,0,0,0-2.4.2l-3.44,1.71,2.92,5.9,3.5-1.73a2.72,2.72,0,0,0,1.59-1.81m-3.49,6.76,3.08,6.23-3.77,1.87L328,224.36l7.22-3.57q6.56-3.25,9.58,2.87a6.55,6.55,0,0,1-.08,6.71l6.17,5.79-4.13,2L341.56,233Z" transform="translate(-207.97 -201.41)"/><path class="cls-1" d="M508.71,245a27.79,27.79,0,0,1-5.47-2.11,11,11,0,0,1-3.36-2.51,5.1,5.1,0,0,1-1.2-2.95,9.16,9.16,0,0,1,.47-3.48,27.39,27.39,0,0,1,1.94-4.36q2.81-5.31,5.42-6.6c1.73-.86,3.94-.58,6.61.84a26.35,26.35,0,0,1,5,3.58l-1.69,2.9a35.92,35.92,0,0,0-4.21-2.76,5.66,5.66,0,0,0-2.77-.86,3.26,3.26,0,0,0-2.07,1.19,21.9,21.9,0,0,0-2.75,4.31q-1.69,3.17-1.6,4.79c.06,1.08.83,2,2.31,2.8a34.63,34.63,0,0,0,4.93,2.13Z" transform="translate(-207.97 -201.41)"/><polygon class="cls-1" points="308.11 48.62 320.11 31.7 331.05 39.46 328.93 42.45 321.42 37.12 318.62 41.08 324.64 45.34 322.55 48.28 316.54 44.01 313.66 48.07 321.17 53.39 319.06 56.38 308.11 48.62"/></svg>